<svg width="195" height="47" viewBox="0 0 195 47" fill="none" xmlns="http://www.w3.org/2000/svg">
    <g clip-path="url(#clip0_3_3)">
        <g clip-path="url(#clip1_3_3)">
            <path fill-rule="evenodd" clip-rule="evenodd"
                d="M9.09 0.45076H57.09C59.4984 0.458669 61.8059 1.4189 63.5089 3.1219C65.2119 4.82489 66.1721 7.13238 66.18 9.54076V9.68076C66.01 14.9608 62.55 14.0008 58.71 12.1508C55.53 10.6508 51.82 9.04076 43.87 9.04076C32 9.04076 21.13 13.6108 21.13 23.7708C21.13 32.7708 29.58 37.2808 39.25 42.1708C48.25 46.7408 54.54 50.5608 54.54 57.1708C54.54 63.1708 49.01 66.1708 41.9 66.1708C26.1 66.1708 23.66 55.9908 22.11 49.5908C21.35 46.4508 21.03 46.5908 21.03 49.5908C21.03 58.7608 20.93 63.3408 20.72 66.5908H9.09C6.69365 66.583 4.39663 65.6324 2.69561 63.9445C0.994593 62.2566 0.0262634 59.967 1.33671e-10 57.5708L1.33671e-10 9.57076C-1.30582e-05 7.15717 0.956722 4.842 2.66057 3.13253C4.36442 1.42306 6.67643 0.458699 9.09 0.45076ZM66.21 30.5508C66.21 22.1608 56.11 10.9808 46.67 10.9808C40.15 10.9808 35.49 14.0808 35.49 19.2108C35.49 25.7108 41.7 28.3508 53.1 34.4208C58.41 37.2108 63.1 39.7908 66.21 43.0008V30.5508Z"
                fill="white" />
        </g>
    </g>
    <path
        d="M49.0029 10.47H62.0929V37.17H52.9229V17.54H49.0029V10.47ZM52.9229 7.33V0H62.0929V7.33H52.9229Z"
        fill="white" />
    <path
        d="M84.0622 8.89999H84.5822C87.4155 8.89999 89.5989 9.94666 91.1322 12.04C92.7389 10.96 94.4755 10.1667 96.3422 9.65999C98.2089 9.15333 99.8755 8.89999 101.342 8.89999H101.862C104.236 8.89999 106.139 9.61333 107.572 11.04C109.006 12.4733 109.722 14.3767 109.722 16.75V37.17H100.552V18.32C100.552 17.8 100.379 17.3633 100.032 17.01C99.6855 16.6633 99.2489 16.49 98.7222 16.49H98.4622C96.8889 16.49 94.8822 16.84 92.4422 17.54V37.17H83.2822V18.32C83.2822 17.8 83.1055 17.3633 82.7522 17.01C82.4055 16.6633 81.9689 16.49 81.4422 16.49H81.1822C79.6155 16.49 77.6089 16.84 75.1622 17.54V37.17H66.0022V9.41999H74.1122L74.6422 12.04C76.2822 10.96 77.9655 10.1667 79.6922 9.65999C81.4189 9.15333 82.8755 8.89999 84.0622 8.89999Z"
        fill="white" />
    <path
        d="M130.282 16.49H128.442C126.596 16.49 124.502 16.84 122.162 17.54V30.1H130.012C131.412 30.1 132.112 29.4033 132.112 28.01V18.32C132.112 17.8 131.936 17.3633 131.582 17.01C131.236 16.6633 130.802 16.49 130.282 16.49ZM132.892 37.17H122.162V46.07H113.002V9.41999H121.112L121.642 12.04C123.282 10.96 124.966 10.1667 126.692 9.65999C128.419 9.15333 129.876 8.89999 131.062 8.89999H133.422C135.796 8.89999 137.696 9.61333 139.122 11.04C140.556 12.4733 141.272 14.3767 141.272 16.75V28.79C141.272 31.41 140.529 33.46 139.042 34.94C137.562 36.4267 135.512 37.17 132.892 37.17Z"
        fill="white" />
    <path
        d="M159.132 30.36V37.17C156.799 37.5167 154.576 37.69 152.462 37.69C150.349 37.69 148.576 36.9767 147.142 35.55C145.716 34.1167 145.002 32.2133 145.002 29.84V0.519989H154.162V28.53C154.162 29.0567 154.336 29.4933 154.682 29.84C155.036 30.1867 155.472 30.36 155.992 30.36H159.132Z"
        fill="white" />
    <path
        d="M173.474 46.59C171.62 46.59 169.35 46.4167 166.664 46.07V39.26H171.374C172.7 39.26 173.567 38.8933 173.974 38.16C174.374 37.4333 174.294 36.4067 173.734 35.08L163.004 9.42H172.684L179.234 27.22L184.724 9.42H194.414L183.944 38.22C182.93 40.9733 181.62 43.0567 180.014 44.47C178.407 45.8833 176.227 46.59 173.474 46.59Z"
        fill="white" />
    <defs>
        <clipPath id="clip0_3_3">
            <rect width="45.7382" height="45.6898" fill="white" transform="translate(0 0.45076)" />
        </clipPath>
        <clipPath id="clip1_3_3">
            <rect width="66.21" height="66.14" fill="white" transform="translate(0 0.45076)" />
        </clipPath>
    </defs>
</svg>